# xmcd
#
# Track frame offsets:
#	150
#	12487
#	24116
#	38553
#	48232
#	60909
#	75909
#	88920
#	101278
#	115679
#	127792
#	141705
#
# Disc length: 2040 seconds
#
# Revision: 0
# Processed by: cddbd v1.5.1PL0 Copyright (c) Steve Scherf et al.
# Submitted via: audiograbber 1.83.01
#
DISCID=8407f60c
DTITLE=Jody Miller - The Nashville Sound of Jody Miller
DYEAR=1968
DGENRE=Country
TTITLE0=It's My Time
TTITLE1=Over The Edge
TTITLE2=Urge For Going
TTITLE3=Back In The Race
TTITLE4=The Wishing Tree
TTITLE5=Long Black Limousine
TTITLE6=I Remember Trusting Someone
TTITLE7=Odds And Ends
TTITLE8=Don't You Ever Get Tired of Hurting Me
TTITLE9=Right Kind of Fool
TTITLE10=For The Life of Me
TTITLE11=Every Passing Heartbeat
EXTD=
EXTT0=
EXTT1=
EXTT2=
EXTT3=
EXTT4=
EXTT5=
EXTT6=
EXTT7=
EXTT8=
EXTT9=
EXTT10=
EXTT11=
PLAYORDER=
